<?xml version="1.0" encoding="UTF-8" standalone="no"?>
<svg
   xmlns:dc="http://purl.org/dc/elements/1.1/"
   xmlns:cc="http://creativecommons.org/ns#"
   xmlns:rdf="http://www.w3.org/1999/02/22-rdf-syntax-ns#"
   xmlns:svg="http://www.w3.org/2000/svg"
   xmlns="http://www.w3.org/2000/svg"
   xmlns:sodipodi="http://sodipodi.sourceforge.net/DTD/sodipodi-0.dtd"
   xmlns:inkscape="http://www.inkscape.org/namespaces/inkscape"
   id="bf59fb71-ac1e-4020-97b5-5970fed6e003"
   data-name="Layer 1"
   width="561"
   height="493.00003"
   viewBox="0 0 561 493.00003"
   version="1.1"
   sodipodi:docname="email.svg"
   inkscape:version="1.0.2 (e86c870879, 2021-01-15)">
  <metadata
     id="metadata62">
    <rdf:RDF>
      <cc:Work
         rdf:about="">
        <dc:format>image/svg+xml</dc:format>
        <dc:type
           rdf:resource="http://purl.org/dc/dcmitype/StillImage" />
        <dc:title></dc:title>
      </cc:Work>
    </rdf:RDF>
  </metadata>
  <defs
     id="defs60" />
  <sodipodi:namedview
     pagecolor="#ffffff"
     bordercolor="#666666"
     borderopacity="1"
     objecttolerance="10"
     gridtolerance="10"
     guidetolerance="10"
     inkscape:pageopacity="0"
     inkscape:pageshadow="2"
     inkscape:window-width="1920"
     inkscape:window-height="1017"
     id="namedview58"
     showgrid="false"
     inkscape:zoom="1.7241379"
     inkscape:cx="218.73"
     inkscape:cy="156.55195"
     inkscape:window-x="-8"
     inkscape:window-y="-8"
     inkscape:window-maximized="1"
     inkscape:current-layer="bf59fb71-ac1e-4020-97b5-5970fed6e003" />
  <path
     d="m 32.360103,18.294616 c -0.05701,0.05158 -0.11456,0.102776 -0.171543,0.1536 a 0.9785058,0.63353996 0 0 1 -0.557046,0.111811 H 0.98848486 a 0.98289293,0.63638044 0 0 1 -0.53552622,-0.1024 C 0.40003633,18.412452 0.3477106,18.366899 0.29478827,18.321343 L 0.3477106,18.302519 15.86053,12.735266 a 0.9314545,0.6030763 0 0 1 0.899534,-7.59e-4 l 15.547685,5.541279 z"
     fill="#023e8a"
     id="path37"
     style="stroke-width:0.0467871" />
  <path
     d="M 31.631514,6.5882452 18.187057,1.5612124 a 3.7226922,2.4102812 0 0 0 -3.720278,-0.00119 L 0.98848486,6.5882452 A 0.98988617,0.64090825 0 0 0 0,7.2282461 V 17.920026 a 0.98963847,0.64074788 0 0 0 0.98848486,0.640001 H 31.631514 A 0.99015888,0.64108482 0 0 0 32.62,17.920026 V 7.2282461 A 0.98988501,0.64090751 0 0 0 31.631514,6.5882452 Z m 0.872194,11.3317808 a 0.87431427,0.56608047 0 0 1 -0.872194,0.564707 H 0.98848486 A 0.87376595,0.56572546 0 0 1 0.11629234,17.920026 V 7.2282461 A 0.87325543,0.56539492 0 0 1 0.98848486,6.6635394 L 14.466779,1.6353196 a 3.7226922,2.4102812 0 0 1 3.720278,0.00119 l 13.444457,5.027034 a 0.87325543,0.56539492 0 0 1 0.872194,0.5647067 z"
     fill="#3f3d56"
     id="path39"
     style="stroke-width:0.0467871" />
  <path
     d="m 16.327432,12.63739 a 0.89332575,0.57838957 0 0 1 -0.297475,-0.03232 l -0.01759,-0.004 -0.0036,-0.02531 c -0.01096,0.0035 -0.02202,0.0068 -0.03309,0.01 l -0.0117,0.0033 -0.01171,-0.0033 c -0.0245,-0.007 -0.04883,-0.01485 -0.07231,-0.02342 L 5.1750089,8.6675865 V 0.71529519 A 1.0769135,0.6972547 0 0 1 6.250713,0.01882356 h 20.118573 a 1.0769135,0.6972547 0 0 1 1.075706,0.69647163 V 8.6777519 l -0.01482,0.0054 -10.655285,3.8791591 a 0.91620566,0.59320333 0 0 1 -0.447453,0.07508 z"
     fill="#ffffff"
     id="path41"
     style="stroke-width:0.0467871" />
  <path
     d="m 16.327432,12.656214 a 0.92199413,0.5969511 0 0 1 -0.307128,-0.03338 l -0.03521,-0.008 -0.0015,-0.01075 -0.01959,0.0056 -0.0234,-0.0067 c -0.02538,-0.0072 -0.05056,-0.01539 -0.07488,-0.02426 L 5.1459358,8.6786159 V 0.71529519 A 1.1060297,0.71610611 0 0 1 6.250713,0 h 20.118573 a 1.1060343,0.71610912 0 0 1 1.104778,0.71529519 V 8.6887629 l -10.68494,3.8899511 a 0.94503222,0.61186727 0 0 1 -0.461692,0.0775 z m -0.233365,-0.097 a 0.84268159,0.54559968 0 0 0 0.638117,-0.04614 L 27.357772,8.6447188 V 0.71529519 A 0.98959951,0.64072265 0 0 0 26.369286,0.07529423 H 6.250713 A 0.98959486,0.64071964 0 0 0 5.2622281,0.71529519 V 8.6345349 l 0.6971505,0.253493 9.9633734,3.6250611 q 0.02034,0.0074 0.04128,0.01395 0.02095,-0.0065 0.04124,-0.01393 l 0.0783,-0.02857 z"
     fill="#3f3d56"
     id="path43"
     style="stroke-width:0.0467871" />
  <path
     d="M 32.362403,6.8660809 28.142745,8.4020832 27.415917,8.6667424 16.760633,12.545901 a 0.88627144,0.57382223 0 0 1 -0.433201,0.07266 0.8670053,0.56134823 0 0 1 -0.287806,-0.03125 0.70087414,0.45378552 0 0 1 -0.07561,-0.01882 q -0.03573,-0.01016 -0.06976,-0.02259 L 5.9309091,8.9208604 5.204082,8.6565777 0.2663141,6.8600573 A 0.05878578,0.03806123 0 0 1 0.2442255,6.8084803 0.05810721,0.03762189 0 0 1 0.3232961,6.7941743 L 5.204082,8.569989 5.9309091,8.8342717 15.951243,12.480018 a 0.76022684,0.49221382 0 0 0 0.103487,0.03125 c 0.01513,0.0038 0.03083,0.0072 0.04653,0.01016 a 0.77126472,0.49936037 0 0 0 0.602385,-0.04141 L 27.415917,8.5805296 28.142745,8.3158705 32.30542,6.800574 A 0.05805893,0.03759063 0 1 1 32.3624,6.86608 Z"
     fill="#3f3d56"
     id="path45"
     style="stroke-width:0.0467871" />
  <path
     d="M 9.5403207,2.4847096 H 7.9122282 a 0.46516938,0.30117695 0 0 1 0,-0.6023539 h 1.6280925 a 0.46516938,0.30117695 0 0 1 0,0.6023539 z"
     fill="#023e8a"
     id="path47"
     style="stroke-width:0.0467871" />
  <path
     d="M 11.459144,3.5011817 H 7.9122282 a 0.46516938,0.30117695 0 0 1 0,-0.6023539 h 3.5469158 a 0.46516938,0.30117695 0 0 1 0,0.6023539 z"
     fill="#e6e6e6"
     id="path49"
     style="stroke-width:0.0467871" />
  <path
     d="M 21.368717,6.211774 H 11.30943 a 0.46516934,0.30117692 0 0 1 0,-0.6023538 h 10.059287 a 0.46516934,0.30117692 0 0 1 0,0.6023538 z"
     fill="#023e8a"
     id="path51"
     style="stroke-width:0.0467871" />
  <path
     d="m 22.299055,7.3788345 h -11.97811 a 0.46516934,0.30117692 0 0 1 0,-0.6023537 h 11.97811 a 0.46516934,0.30117692 0 0 1 0,0.6023537 z"
     fill="#e6e6e6"
     id="path53"
     style="stroke-width:0.0467871" />
  <path
     d="m 22.299055,8.508248 h -11.97811 a 0.46516934,0.30117692 0 0 1 0,-0.6023537 h 11.97811 a 0.46516934,0.30117692 0 0 1 0,0.6023537 z"
     fill="#e6e6e6"
     id="path55"
     style="stroke-width:0.0467871" />
</svg>
